<?xml version="1.0" standalone="no"?><!DOCTYPE svg PUBLIC "-//W3C//DTD SVG 1.1//EN" "http://www.w3.org/Graphics/SVG/1.1/DTD/svg11.dtd"><svg t="1593247457211" class="icon" viewBox="0 0 1024 1024" version="1.1" xmlns="http://www.w3.org/2000/svg" p-id="13915" width="12" height="12" xmlns:xlink="http://www.w3.org/1999/xlink"><defs><style type="text/css"></style></defs><path d="M512 0c282.752 0 512 229.248 512 512s-229.248 512-512 512S0 794.752 0 512 229.248 0 512 0z m52.906667 698.666667h-66.346667V768h66.304v-69.333333z m-26.368-426.666667c-47.36 0-84.565333 14.592-111.658667 43.818667-25.045333 27.008-38.485333 61.952-40.448 104.96l-0.213333 10.88h59.306666c1.109333-28.885333 5.674667-50.986667 13.653334-66.346667 14.250667-27.52 39.936-41.301333 77.013333-41.301333 30.037333 0 51.498667 7.978667 64.512 23.978666 13.013333 16 19.498667 34.901333 19.498667 56.661334 0 15.573333-4.437333 30.592-13.312 45.013333a104.618667 104.618667 0 0 1-13.653334 17.92l-5.674666 5.76-26.709334 26.325333c-25.514667 25.088-42.069333 47.36-49.664 66.816-6.613333 17.066667-10.325333 38.784-11.136 65.237334l-0.170666 11.605333h59.306666c0-27.989333 3.2-49.152 9.514667-63.488 6.357333-14.336 20.181333-31.829333 41.514667-52.48 29.312-28.458667 48.810667-50.005333 58.453333-64.682667 9.685333-14.677333 14.506667-33.792 14.506667-57.344 0-38.869333-13.141333-70.826667-39.466667-95.829333-26.325333-25.002667-61.397333-37.504-105.173333-37.504z" fill="#008df0" p-id="13916"></path></svg>